<svg width="1280" height="800" viewBox="0 0 1280 800" xmlns="http://www.w3.org/2000/svg" font-family="'Segoe UI', sans-serif">
  <!-- Background -->
  <rect width="1280" height="800" fill="#F4F7FA"/>

  <!-- Sidebar -->
  <rect width="220" height="800" fill="#1B5E88"/>
  <!-- Logo area -->
  <rect width="220" height="64" fill="#1B5E88"/>
  <text x="20" y="34" fill="#FFFFFF" font-size="18" font-weight="600">StockEasy</text>
  <text x="20" y="52" fill="rgba(255,255,255,0.5)" font-size="11">Gestão de comércio</text>
  <line x1="0" y1="64" x2="220" y2="64" stroke="rgba(255,255,255,0.12)" stroke-width="1"/>

  <!-- Nav items -->
  <!-- Dashboard ACTIVE -->
  <rect x="0" y="76" width="220" height="38" fill="rgba(255,255,255,0.15)"/>
  <rect x="0" y="76" width="3" height="38" fill="#5AB0E0"/>
  <rect x="17" y="89" width="14" height="14" rx="2" fill="none" stroke="white" stroke-width="1.5"/>
  <rect x="21" y="89" width="6" height="6" rx="1" fill="none" stroke="white" stroke-width="1.2"/>
  <rect x="21" y="97" width="6" height="6" rx="1" fill="none" stroke="white" stroke-width="1.2"/>
  <rect x="29" y="89" width="6" height="6" rx="1" fill="none" stroke="white" stroke-width="1.2"/>
  <rect x="29" y="97" width="6" height="6" rx="1" fill="none" stroke="white" stroke-width="1.2"/>
  <text x="40" y="100" fill="#FFFFFF" font-size="13">Dashboard</text>

  <!-- Produtos -->
  <rect x="17" y="133" width="14" height="10" rx="1" fill="none" stroke="rgba(255,255,255,0.6)" stroke-width="1.5"/>
  <line x1="17" y1="137" x2="31" y2="137" stroke="rgba(255,255,255,0.6)" stroke-width="1.5"/>
  <line x1="17" y1="141" x2="31" y2="141" stroke="rgba(255,255,255,0.6)" stroke-width="1.5"/>
  <text x="40" y="142" fill="rgba(255,255,255,0.65)" font-size="13">Produtos</text>

  <!-- Estoque -->
  <rect x="17" y="172" width="14" height="14" rx="1" fill="none" stroke="rgba(255,255,255,0.6)" stroke-width="1.5"/>
  <line x1="24" y1="172" x2="24" y2="186" stroke="rgba(255,255,255,0.6)" stroke-width="1.5"/>
  <line x1="17" y1="179" x2="31" y2="179" stroke="rgba(255,255,255,0.6)" stroke-width="1.5"/>
  <text x="40" y="182" fill="rgba(255,255,255,0.65)" font-size="13">Estoque</text>

  <!-- Vendas -->
  <path d="M17 212 L27 212 L26 220 L18 220 Z" fill="none" stroke="rgba(255,255,255,0.6)" stroke-width="1.5"/>
  <circle cx="20" cy="222" r="1.5" fill="rgba(255,255,255,0.6)"/>
  <circle cx="25" cy="222" r="1.5" fill="rgba(255,255,255,0.6)"/>
  <text x="40" y="220" fill="rgba(255,255,255,0.65)" font-size="13">Vendas</text>

  <!-- Fornecedores -->
  <circle cx="24" cy="254" r="4" fill="none" stroke="rgba(255,255,255,0.6)" stroke-width="1.5"/>
  <path d="M17 264 Q24 259 31 264" fill="none" stroke="rgba(255,255,255,0.6)" stroke-width="1.5"/>
  <text x="40" y="259" fill="rgba(255,255,255,0.65)" font-size="13">Fornecedores</text>

  <!-- Relatórios -->
  <rect x="17" y="288" width="14" height="14" rx="1" fill="none" stroke="rgba(255,255,255,0.6)" stroke-width="1.5"/>
  <line x1="20" y1="293" x2="28" y2="293" stroke="rgba(255,255,255,0.6)" stroke-width="1.2"/>
  <line x1="20" y1="297" x2="28" y2="297" stroke="rgba(255,255,255,0.6)" stroke-width="1.2"/>
  <line x1="20" y1="301" x2="25" y2="301" stroke="rgba(255,255,255,0.6)" stroke-width="1.2"/>
  <text x="40" y="298" fill="rgba(255,255,255,0.65)" font-size="13">Relatórios</text>

  <!-- Footer -->
  <line x1="0" y1="760" x2="220" y2="760" stroke="rgba(255,255,255,0.12)" stroke-width="1"/>
  <text x="20" y="780" fill="rgba(255,255,255,0.4)" font-size="11">v1.0 — SENAC Franca</text>

  <!-- Topbar -->
  <rect x="220" y="0" width="1060" height="56" fill="#FFFFFF"/>
  <line x1="220" y1="56" x2="1280" y2="56" stroke="#E2E8EF" stroke-width="1"/>
  <text x="240" y="34" fill="#1A1A2E" font-size="15" font-weight="500">Dashboard</text>
  <text x="1160" y="34" fill="#5A6A7A" font-size="13">Olá, Admin</text>
  <circle cx="1252" cy="28" r="16" fill="#2E88C4"/>
  <text x="1248" y="32" fill="white" font-size="11" font-weight="500">AD</text>

  <!-- Metric cards -->
  <!-- Card 1 -->
  <rect x="240" y="76" width="228" height="100" rx="8" fill="#FFFFFF" stroke="#E2E8EF" stroke-width="1"/>
  <text x="260" y="102" fill="#5A6A7A" font-size="12">Vendas hoje</text>
  <text x="260" y="130" fill="#1A1A2E" font-size="22" font-weight="500">R$ 1.240</text>
  <rect x="260" y="140" width="96" height="20" rx="10" fill="#EBF7F1"/>
  <text x="275" y="154" fill="#1B7A45" font-size="11">+12% vs ontem</text>

  <!-- Card 2 -->
  <rect x="484" y="76" width="228" height="100" rx="8" fill="#FFFFFF" stroke="#E2E8EF" stroke-width="1"/>
  <text x="504" y="102" fill="#5A6A7A" font-size="12">Produtos cadastrados</text>
  <text x="504" y="130" fill="#1A1A2E" font-size="22" font-weight="500">148</text>
  <rect x="504" y="140" width="86" height="20" rx="10" fill="#EBF7F1"/>
  <text x="519" y="154" fill="#1B7A45" font-size="11">3 novos hoje</text>

  <!-- Card 3 -->
  <rect x="728" y="76" width="228" height="100" rx="8" fill="#FFFFFF" stroke="#E2E8EF" stroke-width="1"/>
  <text x="748" y="102" fill="#5A6A7A" font-size="12">Estoque baixo</text>
  <text x="748" y="130" fill="#1A1A2E" font-size="22" font-weight="500">7</text>
  <rect x="748" y="140" width="96" height="20" rx="10" fill="#FDF3E7"/>
  <text x="763" y="154" fill="#A0520E" font-size="11">Requer atenção</text>

  <!-- Card 4 -->
  <rect x="972" y="76" width="228" height="100" rx="8" fill="#FFFFFF" stroke="#E2E8EF" stroke-width="1"/>
  <text x="992" y="102" fill="#5A6A7A" font-size="12">Sem estoque</text>
  <text x="992" y="130" fill="#1A1A2E" font-size="22" font-weight="500">2</text>
  <rect x="992" y="140" width="90" height="20" rx="10" fill="#FDECEA"/>
  <text x="1007" y="154" fill="#9B2320" font-size="11">Repor urgente</text>

  <!-- Chart card -->
  <rect x="240" y="196" width="624" height="200" rx="8" fill="#FFFFFF" stroke="#E2E8EF" stroke-width="1"/>
  <text x="260" y="220" fill="#1A1A2E" font-size="13" font-weight="500">Vendas dos últimos 7 dias</text>

  <!-- Bars -->
  <rect x="275" y="290" width="44" height="66" rx="3" fill="#5AB0E0"/>
  <rect x="351" y="270" width="44" height="86" rx="3" fill="#2E88C4"/>
  <rect x="427" y="305" width="44" height="51" rx="3" fill="#5AB0E0"/>
  <rect x="503" y="253" width="44" height="103" rx="3" fill="#2E88C4"/>
  <rect x="579" y="240" width="44" height="116" rx="3" fill="#2E88C4"/>
  <rect x="655" y="260" width="44" height="96" rx="3" fill="#2E88C4"/>
  <rect x="731" y="280" width="44" height="76" rx="3" fill="#5AB0E0"/>

  <line x1="260" y1="360" x2="820" y2="360" stroke="#E2E8EF" stroke-width="1"/>
  <text x="289" y="374" fill="#5A6A7A" font-size="10">Seg</text>
  <text x="365" y="374" fill="#5A6A7A" font-size="10">Ter</text>
  <text x="441" y="374" fill="#5A6A7A" font-size="10">Qua</text>
  <text x="517" y="374" fill="#5A6A7A" font-size="10">Qui</text>
  <text x="593" y="374" fill="#5A6A7A" font-size="10">Sex</text>
  <text x="669" y="374" fill="#5A6A7A" font-size="10">Sáb</text>
  <text x="745" y="374" fill="#5A6A7A" font-size="10">Dom</text>

  <!-- Alerts card -->
  <rect x="880" y="196" width="320" height="200" rx="8" fill="#FFFFFF" stroke="#E2E8EF" stroke-width="1"/>
  <text x="900" y="220" fill="#1A1A2E" font-size="13" font-weight="500">Alertas de estoque</text>

  <!-- Alert items -->
  <rect x="896" y="230" width="288" height="36" rx="6" fill="#F4F7FA"/>
  <text x="912" y="250" fill="#1A1A2E" font-size="12">Arroz 5kg</text>
  <text x="912" y="262" fill="#5A6A7A" font-size="11">3 unidades</text>
  <circle cx="1166" cy="248" r="6" fill="#E67E22"/>

  <rect x="896" y="272" width="288" height="36" rx="6" fill="#F4F7FA"/>
  <text x="912" y="292" fill="#1A1A2E" font-size="12">Óleo de soja</text>
  <text x="912" y="304" fill="#5A6A7A" font-size="11">0 unidades</text>
  <circle cx="1166" cy="290" r="6" fill="#E74C3C"/>

  <rect x="896" y="314" width="288" height="36" rx="6" fill="#F4F7FA"/>
  <text x="912" y="334" fill="#1A1A2E" font-size="12">Feijão carioca</text>
  <text x="912" y="346" fill="#5A6A7A" font-size="11">4 unidades</text>
  <circle cx="1166" cy="332" r="6" fill="#E67E22"/>

  <rect x="896" y="356" width="288" height="36" rx="6" fill="#F4F7FA"/>
  <text x="912" y="376" fill="#1A1A2E" font-size="12">Sabão em pó</text>
  <text x="912" y="388" fill="#5A6A7A" font-size="11">2 unidades</text>
  <circle cx="1166" cy="374" r="6" fill="#E67E22"/>

  <!-- Recent sales table -->
  <rect x="240" y="416" width="960" height="220" rx="8" fill="#FFFFFF" stroke="#E2E8EF" stroke-width="1"/>
  <text x="260" y="440" fill="#1A1A2E" font-size="13" font-weight="500">Últimas vendas</text>
  <!-- Table header -->
  <rect x="240" y="450" width="960" height="30" fill="#EAF4FB" rx="0"/>
  <text x="260" y="469" fill="#1B5E88" font-size="11" font-weight="500">Produto</text>
  <text x="520" y="469" fill="#1B5E88" font-size="11" font-weight="500">Qtd</text>
  <text x="660" y="469" fill="#1B5E88" font-size="11" font-weight="500">Valor</text>
  <text x="820" y="469" fill="#1B5E88" font-size="11" font-weight="500">Data</text>
  <text x="1060" y="469" fill="#1B5E88" font-size="11" font-weight="500">Status</text>
  <!-- Rows -->
  <line x1="240" y1="480" x2="1200" y2="480" stroke="#E2E8EF" stroke-width="1"/>
  <text x="260" y="498" fill="#1A1A2E" font-size="12">Arroz 5kg</text>
  <text x="520" y="498" fill="#5A6A7A" font-size="12">2</text>
  <text x="660" y="498" fill="#1A1A2E" font-size="12">R$ 34,00</text>
  <text x="820" y="498" fill="#5A6A7A" font-size="12">23/04/2025</text>
  <rect x="1050" y="486" width="74" height="18" rx="9" fill="#EBF7F1"/>
  <text x="1060" y="499" fill="#1B7A45" font-size="11">Confirmada</text>

  <line x1="240" y1="512" x2="1200" y2="512" stroke="#E2E8EF" stroke-width="1"/>
  <text x="260" y="530" fill="#1A1A2E" font-size="12">Feijão carioca</text>
  <text x="520" y="530" fill="#5A6A7A" font-size="12">5</text>
  <text x="660" y="530" fill="#1A1A2E" font-size="12">R$ 42,50</text>
  <text x="820" y="530" fill="#5A6A7A" font-size="12">23/04/2025</text>
  <rect x="1050" y="518" width="74" height="18" rx="9" fill="#EBF7F1"/>
  <text x="1060" y="531" fill="#1B7A45" font-size="11">Confirmada</text>

  <line x1="240" y1="544" x2="1200" y2="544" stroke="#E2E8EF" stroke-width="1"/>
  <text x="260" y="562" fill="#1A1A2E" font-size="12">Sabão em pó</text>
  <text x="520" y="562" fill="#5A6A7A" font-size="12">1</text>
  <text x="660" y="562" fill="#1A1A2E" font-size="12">R$ 18,90</text>
  <text x="820" y="562" fill="#5A6A7A" font-size="12">22/04/2025</text>
  <rect x="1050" y="550" width="74" height="18" rx="9" fill="#FDECEA"/>
  <text x="1063" y="563" fill="#9B2320" font-size="11">Cancelada</text>

  <line x1="240" y1="576" x2="1200" y2="576" stroke="#E2E8EF" stroke-width="1"/>
  <text x="260" y="594" fill="#1A1A2E" font-size="12">Óleo de soja</text>
  <text x="520" y="594" fill="#5A6A7A" font-size="12">3</text>
  <text x="660" y="594" fill="#1A1A2E" font-size="12">R$ 27,00</text>
  <text x="820" y="594" fill="#5A6A7A" font-size="12">22/04/2025</text>
  <rect x="1050" y="582" width="74" height="18" rx="9" fill="#EBF7F1"/>
  <text x="1060" y="595" fill="#1B7A45" font-size="11">Confirmada</text>

  <!-- Page label -->
  <text x="640" y="780" fill="#5A6A7A" font-size="11" text-anchor="middle">StockEasy · Wireframe · Dashboard · SENAC Franca</text>
</svg>
