<svg width="1280" height="800" viewBox="0 0 1280 800" xmlns="http://www.w3.org/2000/svg" font-family="'Segoe UI', sans-serif">
  <rect width="1280" height="800" fill="#F4F7FA"/>

  <!-- Sidebar -->
  <rect width="220" height="800" fill="#1B5E88"/>
  <text x="20" y="34" fill="#FFFFFF" font-size="18" font-weight="600">StockEasy</text>
  <text x="20" y="52" fill="rgba(255,255,255,0.5)" font-size="11">Gestão de comércio</text>
  <line x1="0" y1="64" x2="220" y2="64" stroke="rgba(255,255,255,0.12)" stroke-width="1"/>
  <text x="40" y="100" fill="rgba(255,255,255,0.65)" font-size="13">Dashboard</text>
  <text x="40" y="137" fill="rgba(255,255,255,0.65)" font-size="13">Produtos</text>
  <!-- Estoque ACTIVE -->
  <rect x="0" y="150" width="220" height="38" fill="rgba(255,255,255,0.15)"/>
  <rect x="0" y="150" width="3" height="38" fill="#5AB0E0"/>
  <text x="40" y="174" fill="#FFFFFF" font-size="13">Estoque</text>
  <text x="40" y="213" fill="rgba(255,255,255,0.65)" font-size="13">Vendas</text>
  <text x="40" y="251" fill="rgba(255,255,255,0.65)" font-size="13">Fornecedores</text>
  <text x="40" y="289" fill="rgba(255,255,255,0.65)" font-size="13">Relatórios</text>
  <line x1="0" y1="760" x2="220" y2="760" stroke="rgba(255,255,255,0.12)" stroke-width="1"/>
  <text x="20" y="780" fill="rgba(255,255,255,0.4)" font-size="11">v1.0 — SENAC Franca</text>

  <!-- Topbar -->
  <rect x="220" y="0" width="1060" height="56" fill="#FFFFFF"/>
  <line x1="220" y1="56" x2="1280" y2="56" stroke="#E2E8EF" stroke-width="1"/>
  <text x="240" y="34" fill="#1A1A2E" font-size="15" font-weight="500">Estoque</text>
  <text x="1160" y="34" fill="#5A6A7A" font-size="13">Olá, Admin</text>
  <circle cx="1252" cy="28" r="16" fill="#2E88C4"/>
  <text x="1248" y="32" fill="white" font-size="11" font-weight="500">AD</text>

  <!-- Summary cards -->
  <rect x="240" y="72" width="220" height="84" rx="8" fill="#FFFFFF" stroke="#E2E8EF" stroke-width="1"/>
  <text x="260" y="98" fill="#5A6A7A" font-size="12">Total de itens</text>
  <text x="260" y="124" fill="#1A1A2E" font-size="22" font-weight="500">148</text>
  <rect x="260" y="134" width="70" height="18" rx="9" fill="#EBF7F1"/>
  <text x="268" y="147" fill="#1B7A45" font-size="11">Em estoque</text>

  <rect x="476" y="72" width="220" height="84" rx="8" fill="#FFFFFF" stroke="#E2E8EF" stroke-width="1"/>
  <text x="496" y="98" fill="#5A6A7A" font-size="12">Estoque baixo</text>
  <text x="496" y="124" fill="#E67E22" font-size="22" font-weight="500">7</text>
  <rect x="496" y="134" width="96" height="18" rx="9" fill="#FDF3E7"/>
  <text x="504" y="147" fill="#A0520E" font-size="11">Requer atenção</text>

  <rect x="712" y="72" width="220" height="84" rx="8" fill="#FFFFFF" stroke="#E2E8EF" stroke-width="1"/>
  <text x="732" y="98" fill="#5A6A7A" font-size="12">Sem estoque</text>
  <text x="732" y="124" fill="#E74C3C" font-size="22" font-weight="500">2</text>
  <rect x="732" y="134" width="90" height="18" rx="9" fill="#FDECEA"/>
  <text x="740" y="147" fill="#9B2320" font-size="11">Repor urgente</text>

  <rect x="948" y="72" width="252" height="84" rx="8" fill="#FFFFFF" stroke="#E2E8EF" stroke-width="1"/>
  <text x="968" y="98" fill="#5A6A7A" font-size="12">Valor total em estoque</text>
  <text x="968" y="124" fill="#1A1A2E" font-size="22" font-weight="500">R$ 8.430</text>
  <rect x="968" y="134" width="100" height="18" rx="9" fill="#EAF4FB"/>
  <text x="976" y="147" fill="#1B5E88" font-size="11">Custo estimado</text>

  <!-- Toolbar -->
  <rect x="240" y="170" width="960" height="44" rx="8" fill="#FFFFFF" stroke="#E2E8EF" stroke-width="1"/>
  <rect x="256" y="182" width="240" height="22" rx="5" fill="#F4F7FA" stroke="#E2E8EF" stroke-width="1"/>
  <text x="270" y="197" fill="#5A6A7A" font-size="12">🔍  Buscar produto...</text>
  <rect x="508" y="182" width="130" height="22" rx="5" fill="#F4F7FA" stroke="#E2E8EF" stroke-width="1"/>
  <text x="520" y="197" fill="#5A6A7A" font-size="12">Status  ▾</text>
  <rect x="650" y="182" width="130" height="22" rx="5" fill="#F4F7FA" stroke="#E2E8EF" stroke-width="1"/>
  <text x="662" y="197" fill="#5A6A7A" font-size="12">Categoria  ▾</text>
  <!-- Btn: Registrar entrada -->
  <rect x="1000" y="182" width="136" height="22" rx="5" fill="#2E88C4"/>
  <text x="1016" y="197" fill="white" font-size="11" font-weight="500">+ Registrar Entrada</text>
  <!-- Btn: Registrar saída -->
  <rect x="1142" y="182" width="50" height="22" rx="5" fill="#F4F7FA" stroke="#E2E8EF" stroke-width="1"/>
  <text x="1150" y="197" fill="#5A6A7A" font-size="11">Saída</text>

  <!-- Main table -->
  <rect x="240" y="226" width="960" height="474" rx="8" fill="#FFFFFF" stroke="#E2E8EF" stroke-width="1"/>

  <!-- Table header -->
  <rect x="240" y="226" width="960" height="32" rx="8" fill="#EAF4FB"/>
  <rect x="240" y="244" width="960" height="14" fill="#EAF4FB"/>
  <text x="260" y="246" fill="#1B5E88" font-size="11" font-weight="600">Código</text>
  <text x="340" y="246" fill="#1B5E88" font-size="11" font-weight="600">Produto</text>
  <text x="540" y="246" fill="#1B5E88" font-size="11" font-weight="600">Categoria</text>
  <text x="680" y="246" fill="#1B5E88" font-size="11" font-weight="600">Qtd. Atual</text>
  <text x="780" y="246" fill="#1B5E88" font-size="11" font-weight="600">Qtd. Mínima</text>
  <text x="890" y="246" fill="#1B5E88" font-size="11" font-weight="600">Localização</text>
  <text x="1010" y="246" fill="#1B5E88" font-size="11" font-weight="600">Status</text>
  <text x="1120" y="246" fill="#1B5E88" font-size="11" font-weight="600">Ajustar</text>

  <!-- Rows -->
  <line x1="240" y1="258" x2="1200" y2="258" stroke="#E2E8EF" stroke-width="1"/>
  <text x="260" y="276" fill="#5A6A7A" font-size="12">#001</text>
  <text x="340" y="276" fill="#1A1A2E" font-size="12">Arroz 5kg</text>
  <text x="540" y="276" fill="#5A6A7A" font-size="12">Alimentos</text>
  <text x="700" y="276" fill="#E67E22" font-size="12" font-weight="600">3</text>
  <text x="800" y="276" fill="#5A6A7A" font-size="12">5</text>
  <text x="890" y="276" fill="#5A6A7A" font-size="12">Prateleira A2</text>
  <rect x="1006" y="264" width="64" height="18" rx="9" fill="#FDF3E7"/>
  <text x="1016" y="277" fill="#A0520E" font-size="11">Baixo</text>
  <rect x="1116" y="264" width="52" height="18" rx="4" fill="#EAF4FB"/>
  <text x="1124" y="277" fill="#2E88C4" font-size="11">Ajustar</text>

  <line x1="240" y1="290" x2="1200" y2="290" stroke="#E2E8EF" stroke-width="1"/>
  <text x="260" y="308" fill="#5A6A7A" font-size="12">#002</text>
  <text x="340" y="308" fill="#1A1A2E" font-size="12">Óleo de soja</text>
  <text x="540" y="308" fill="#5A6A7A" font-size="12">Alimentos</text>
  <text x="700" y="308" fill="#E74C3C" font-size="12" font-weight="600">0</text>
  <text x="800" y="308" fill="#5A6A7A" font-size="12">5</text>
  <text x="890" y="308" fill="#5A6A7A" font-size="12">Prateleira A3</text>
  <rect x="1006" y="296" width="80" height="18" rx="9" fill="#FDECEA"/>
  <text x="1013" y="309" fill="#9B2320" font-size="11">Sem estoque</text>
  <rect x="1116" y="296" width="52" height="18" rx="4" fill="#EAF4FB"/>
  <text x="1124" y="309" fill="#2E88C4" font-size="11">Ajustar</text>

  <line x1="240" y1="322" x2="1200" y2="322" stroke="#E2E8EF" stroke-width="1"/>
  <text x="260" y="340" fill="#5A6A7A" font-size="12">#003</text>
  <text x="340" y="340" fill="#1A1A2E" font-size="12">Feijão carioca</text>
  <text x="540" y="340" fill="#5A6A7A" font-size="12">Alimentos</text>
  <text x="700" y="340" fill="#E67E22" font-size="12" font-weight="600">4</text>
  <text x="800" y="340" fill="#5A6A7A" font-size="12">5</text>
  <text x="890" y="340" fill="#5A6A7A" font-size="12">Prateleira B1</text>
  <rect x="1006" y="328" width="64" height="18" rx="9" fill="#FDF3E7"/>
  <text x="1016" y="341" fill="#A0520E" font-size="11">Baixo</text>
  <rect x="1116" y="328" width="52" height="18" rx="4" fill="#EAF4FB"/>
  <text x="1124" y="341" fill="#2E88C4" font-size="11">Ajustar</text>

  <line x1="240" y1="354" x2="1200" y2="354" stroke="#E2E8EF" stroke-width="1"/>
  <text x="260" y="372" fill="#5A6A7A" font-size="12">#004</text>
  <text x="340" y="372" fill="#1A1A2E" font-size="12">Açúcar refinado</text>
  <text x="540" y="372" fill="#5A6A7A" font-size="12">Alimentos</text>
  <text x="700" y="372" fill="#1A1A2E" font-size="12" font-weight="600">42</text>
  <text x="800" y="372" fill="#5A6A7A" font-size="12">10</text>
  <text x="890" y="372" fill="#5A6A7A" font-size="12">Prateleira A1</text>
  <rect x="1006" y="360" width="70" height="18" rx="9" fill="#EBF7F1"/>
  <text x="1014" y="373" fill="#1B7A45" font-size="11">Em estoque</text>
  <rect x="1116" y="360" width="52" height="18" rx="4" fill="#EAF4FB"/>
  <text x="1124" y="373" fill="#2E88C4" font-size="11">Ajustar</text>

  <line x1="240" y1="386" x2="1200" y2="386" stroke="#E2E8EF" stroke-width="1"/>
  <text x="260" y="404" fill="#5A6A7A" font-size="12">#005</text>
  <text x="340" y="404" fill="#1A1A2E" font-size="12">Detergente 500ml</text>
  <text x="540" y="404" fill="#5A6A7A" font-size="12">Limpeza</text>
  <text x="700" y="404" fill="#1A1A2E" font-size="12" font-weight="600">55</text>
  <text x="800" y="404" fill="#5A6A7A" font-size="12">8</text>
  <text x="890" y="404" fill="#5A6A7A" font-size="12">Prateleira C2</text>
  <rect x="1006" y="392" width="70" height="18" rx="9" fill="#EBF7F1"/>
  <text x="1014" y="405" fill="#1B7A45" font-size="11">Em estoque</text>
  <rect x="1116" y="392" width="52" height="18" rx="4" fill="#EAF4FB"/>
  <text x="1124" y="405" fill="#2E88C4" font-size="11">Ajustar</text>

  <!-- Placeholder rows -->
  <line x1="240" y1="418" x2="1200" y2="418" stroke="#E2E8EF" stroke-width="1"/>
  <rect x="260" y="428" width="200" height="12" rx="3" fill="#F4F7FA"/>
  <rect x="540" y="428" width="100" height="12" rx="3" fill="#F4F7FA"/>
  <rect x="700" y="428" width="40" height="12" rx="3" fill="#F4F7FA"/>

  <line x1="240" y1="450" x2="1200" y2="450" stroke="#E2E8EF" stroke-width="1"/>
  <rect x="260" y="460" width="160" height="12" rx="3" fill="#F4F7FA"/>
  <rect x="540" y="460" width="120" height="12" rx="3" fill="#F4F7FA"/>
  <rect x="700" y="460" width="40" height="12" rx="3" fill="#F4F7FA"/>

  <line x1="240" y1="482" x2="1200" y2="482" stroke="#E2E8EF" stroke-width="1"/>
  <rect x="260" y="492" width="220" height="12" rx="3" fill="#F4F7FA"/>
  <rect x="540" y="492" width="90" height="12" rx="3" fill="#F4F7FA"/>
  <rect x="700" y="492" width="40" height="12" rx="3" fill="#F4F7FA"/>

  <!-- Modal/Ajuste popup hint -->
  <rect x="800" y="510" width="380" height="170" rx="10" fill="#FFFFFF" stroke="#2E88C4" stroke-width="1.5" opacity="0.95"/>
  <text x="820" y="535" fill="#1A1A2E" font-size="13" font-weight="600">Ajustar Estoque — Arroz 5kg</text>
  <line x1="800" y1="545" x2="1180" y2="545" stroke="#E2E8EF" stroke-width="1"/>
  <text x="820" y="568" fill="#5A6A7A" font-size="12">Tipo de movimentação</text>
  <rect x="820" y="576" width="100" height="26" rx="5" fill="#2E88C4"/>
  <text x="848" y="594" fill="white" font-size="12">Entrada</text>
  <rect x="930" y="576" width="100" height="26" rx="5" fill="#F4F7FA" stroke="#E2E8EF" stroke-width="1"/>
  <text x="962" y="594" fill="#5A6A7A" font-size="12">Saída</text>
  <text x="820" y="624" fill="#5A6A7A" font-size="12">Quantidade</text>
  <rect x="820" y="632" width="150" height="26" rx="5" fill="#F4F7FA" stroke="#E2E8EF" stroke-width="1"/>
  <text x="836" y="650" fill="#1A1A2E" font-size="12">10</text>
  <rect x="1040" y="632" width="80" height="26" rx="5" fill="#2E88C4"/>
  <text x="1056" y="650" fill="white" font-size="12">Confirmar</text>
  <rect x="1130" y="632" width="36" height="26" rx="5" fill="#F4F7FA" stroke="#E2E8EF" stroke-width="1"/>
  <text x="1140" y="650" fill="#5A6A7A" font-size="12">✕</text>

  <text x="640" y="780" fill="#5A6A7A" font-size="11" text-anchor="middle">StockEasy · Wireframe · Estoque · SENAC Franca</text>
</svg>
