<svg width="1280" height="800" viewBox="0 0 1280 800" xmlns="http://www.w3.org/2000/svg" font-family="'Segoe UI', sans-serif">
  <rect width="1280" height="800" fill="#F4F7FA"/>

  <!-- Sidebar -->
  <rect width="220" height="800" fill="#1B5E88"/>
  <text x="20" y="34" fill="#FFFFFF" font-size="18" font-weight="600">StockEasy</text>
  <text x="20" y="52" fill="rgba(255,255,255,0.5)" font-size="11">Gestão de comércio</text>
  <line x1="0" y1="64" x2="220" y2="64" stroke="rgba(255,255,255,0.12)" stroke-width="1"/>
  <text x="40" y="100" fill="rgba(255,255,255,0.65)" font-size="13">Dashboard</text>
  <text x="40" y="137" fill="rgba(255,255,255,0.65)" font-size="13">Produtos</text>
  <text x="40" y="174" fill="rgba(255,255,255,0.65)" font-size="13">Estoque</text>
  <!-- Vendas ACTIVE -->
  <rect x="0" y="188" width="220" height="38" fill="rgba(255,255,255,0.15)"/>
  <rect x="0" y="188" width="3" height="38" fill="#5AB0E0"/>
  <text x="40" y="212" fill="#FFFFFF" font-size="13">Vendas</text>
  <text x="40" y="251" fill="rgba(255,255,255,0.65)" font-size="13">Fornecedores</text>
  <text x="40" y="289" fill="rgba(255,255,255,0.65)" font-size="13">Relatórios</text>
  <line x1="0" y1="760" x2="220" y2="760" stroke="rgba(255,255,255,0.12)" stroke-width="1"/>
  <text x="20" y="780" fill="rgba(255,255,255,0.4)" font-size="11">v1.0 — SENAC Franca</text>

  <!-- Topbar -->
  <rect x="220" y="0" width="1060" height="56" fill="#FFFFFF"/>
  <line x1="220" y1="56" x2="1280" y2="56" stroke="#E2E8EF" stroke-width="1"/>
  <text x="240" y="34" fill="#1A1A2E" font-size="15" font-weight="500">Vendas</text>
  <text x="1160" y="34" fill="#5A6A7A" font-size="13">Olá, Admin</text>
  <circle cx="1252" cy="28" r="16" fill="#2E88C4"/>
  <text x="1248" y="32" fill="white" font-size="11" font-weight="500">AD</text>

  <!-- KPI cards -->
  <rect x="240" y="72" width="220" height="84" rx="8" fill="#FFFFFF" stroke="#E2E8EF" stroke-width="1"/>
  <text x="260" y="98" fill="#5A6A7A" font-size="12">Vendas hoje</text>
  <text x="260" y="124" fill="#1A1A2E" font-size="22" font-weight="500">R$ 1.240</text>
  <rect x="260" y="134" width="84" height="18" rx="9" fill="#EBF7F1"/>
  <text x="268" y="147" fill="#1B7A45" font-size="11">+12% vs ontem</text>

  <rect x="476" y="72" width="220" height="84" rx="8" fill="#FFFFFF" stroke="#E2E8EF" stroke-width="1"/>
  <text x="496" y="98" fill="#5A6A7A" font-size="12">Vendas no mês</text>
  <text x="496" y="124" fill="#1A1A2E" font-size="22" font-weight="500">R$ 24.870</text>
  <rect x="496" y="134" width="84" height="18" rx="9" fill="#EBF7F1"/>
  <text x="504" y="147" fill="#1B7A45" font-size="11">+8% vs mês ant.</text>

  <rect x="712" y="72" width="220" height="84" rx="8" fill="#FFFFFF" stroke="#E2E8EF" stroke-width="1"/>
  <text x="732" y="98" fill="#5A6A7A" font-size="12">Pedidos hoje</text>
  <text x="732" y="124" fill="#1A1A2E" font-size="22" font-weight="500">34</text>
  <rect x="732" y="134" width="80" height="18" rx="9" fill="#EAF4FB"/>
  <text x="740" y="147" fill="#1B5E88" font-size="11">Ticket: R$ 36,47</text>

  <rect x="948" y="72" width="252" height="84" rx="8" fill="#FFFFFF" stroke="#E2E8EF" stroke-width="1"/>
  <text x="968" y="98" fill="#5A6A7A" font-size="12">Cancelamentos</text>
  <text x="968" y="124" fill="#E74C3C" font-size="22" font-weight="500">3</text>
  <rect x="968" y="134" width="90" height="18" rx="9" fill="#FDECEA"/>
  <text x="976" y="147" fill="#9B2320" font-size="11">R$ 52,80 devol.</text>

  <!-- Toolbar -->
  <rect x="240" y="170" width="960" height="44" rx="8" fill="#FFFFFF" stroke="#E2E8EF" stroke-width="1"/>
  <rect x="256" y="182" width="200" height="22" rx="5" fill="#F4F7FA" stroke="#E2E8EF" stroke-width="1"/>
  <text x="268" y="197" fill="#5A6A7A" font-size="12">🔍  Buscar venda...</text>
  <rect x="468" y="182" width="130" height="22" rx="5" fill="#F4F7FA" stroke="#E2E8EF" stroke-width="1"/>
  <text x="480" y="197" fill="#5A6A7A" font-size="12">Status  ▾</text>
  <rect x="610" y="182" width="160" height="22" rx="5" fill="#F4F7FA" stroke="#E2E8EF" stroke-width="1"/>
  <text x="622" y="197" fill="#5A6A7A" font-size="12">23/04/2025  📅</text>
  <rect x="1064" y="182" width="120" height="22" rx="5" fill="#2E88C4"/>
  <text x="1080" y="197" fill="white" font-size="11" font-weight="500">+ Nova Venda</text>

  <!-- Table -->
  <rect x="240" y="226" width="960" height="434" rx="8" fill="#FFFFFF" stroke="#E2E8EF" stroke-width="1"/>
  <rect x="240" y="226" width="960" height="32" rx="8" fill="#EAF4FB"/>
  <rect x="240" y="244" width="960" height="14" fill="#EAF4FB"/>
  <text x="260" y="246" fill="#1B5E88" font-size="11" font-weight="600"># Venda</text>
  <text x="360" y="246" fill="#1B5E88" font-size="11" font-weight="600">Data/Hora</text>
  <text x="510" y="246" fill="#1B5E88" font-size="11" font-weight="600">Itens</text>
  <text x="620" y="246" fill="#1B5E88" font-size="11" font-weight="600">Total</text>
  <text x="730" y="246" fill="#1B5E88" font-size="11" font-weight="600">Pagamento</text>
  <text x="870" y="246" fill="#1B5E88" font-size="11" font-weight="600">Operador</text>
  <text x="990" y="246" fill="#1B5E88" font-size="11" font-weight="600">Status</text>
  <text x="1120" y="246" fill="#1B5E88" font-size="11" font-weight="600">Ver</text>

  <!-- Rows -->
  <line x1="240" y1="258" x2="1200" y2="258" stroke="#E2E8EF" stroke-width="1"/>
  <text x="260" y="276" fill="#5A6A7A" font-size="12">#V-0034</text>
  <text x="360" y="276" fill="#5A6A7A" font-size="12">23/04 14:32</text>
  <text x="510" y="276" fill="#1A1A2E" font-size="12">3 itens</text>
  <text x="620" y="276" fill="#1A1A2E" font-size="12" font-weight="500">R$ 59,40</text>
  <text x="730" y="276" fill="#5A6A7A" font-size="12">Dinheiro</text>
  <text x="870" y="276" fill="#5A6A7A" font-size="12">Admin</text>
  <rect x="986" y="264" width="74" height="18" rx="9" fill="#EBF7F1"/>
  <text x="996" y="277" fill="#1B7A45" font-size="11">Confirmada</text>
  <rect x="1116" y="264" width="48" height="18" rx="4" fill="#EAF4FB"/>
  <text x="1126" y="277" fill="#2E88C4" font-size="11">Ver ▸</text>

  <line x1="240" y1="290" x2="1200" y2="290" stroke="#E2E8EF" stroke-width="1"/>
  <text x="260" y="308" fill="#5A6A7A" font-size="12">#V-0033</text>
  <text x="360" y="308" fill="#5A6A7A" font-size="12">23/04 13:15</text>
  <text x="510" y="308" fill="#1A1A2E" font-size="12">5 itens</text>
  <text x="620" y="308" fill="#1A1A2E" font-size="12" font-weight="500">R$ 112,00</text>
  <text x="730" y="308" fill="#5A6A7A" font-size="12">PIX</text>
  <text x="870" y="308" fill="#5A6A7A" font-size="12">Admin</text>
  <rect x="986" y="296" width="74" height="18" rx="9" fill="#EBF7F1"/>
  <text x="996" y="309" fill="#1B7A45" font-size="11">Confirmada</text>
  <rect x="1116" y="296" width="48" height="18" rx="4" fill="#EAF4FB"/>
  <text x="1126" y="309" fill="#2E88C4" font-size="11">Ver ▸</text>

  <line x1="240" y1="322" x2="1200" y2="322" stroke="#E2E8EF" stroke-width="1"/>
  <text x="260" y="340" fill="#5A6A7A" font-size="12">#V-0032</text>
  <text x="360" y="340" fill="#5A6A7A" font-size="12">23/04 11:48</text>
  <text x="510" y="340" fill="#1A1A2E" font-size="12">1 item</text>
  <text x="620" y="340" fill="#E74C3C" font-size="12" font-weight="500">R$ 18,90</text>
  <text x="730" y="340" fill="#5A6A7A" font-size="12">Cartão</text>
  <text x="870" y="340" fill="#5A6A7A" font-size="12">Admin</text>
  <rect x="986" y="328" width="74" height="18" rx="9" fill="#FDECEA"/>
  <text x="993" y="341" fill="#9B2320" font-size="11">Cancelada</text>
  <rect x="1116" y="328" width="48" height="18" rx="4" fill="#EAF4FB"/>
  <text x="1126" y="341" fill="#2E88C4" font-size="11">Ver ▸</text>

  <line x1="240" y1="354" x2="1200" y2="354" stroke="#E2E8EF" stroke-width="1"/>
  <text x="260" y="372" fill="#5A6A7A" font-size="12">#V-0031</text>
  <text x="360" y="372" fill="#5A6A7A" font-size="12">23/04 10:22</text>
  <text x="510" y="372" fill="#1A1A2E" font-size="12">2 itens</text>
  <text x="620" y="372" fill="#1A1A2E" font-size="12" font-weight="500">R$ 25,50</text>
  <text x="730" y="372" fill="#5A6A7A" font-size="12">Dinheiro</text>
  <text x="870" y="372" fill="#5A6A7A" font-size="12">Admin</text>
  <rect x="986" y="360" width="74" height="18" rx="9" fill="#EBF7F1"/>
  <text x="996" y="373" fill="#1B7A45" font-size="11">Confirmada</text>
  <rect x="1116" y="360" width="48" height="18" rx="4" fill="#EAF4FB"/>
  <text x="1126" y="373" fill="#2E88C4" font-size="11">Ver ▸</text>

  <line x1="240" y1="386" x2="1200" y2="386" stroke="#E2E8EF" stroke-width="1"/>
  <text x="260" y="404" fill="#5A6A7A" font-size="12">#V-0030</text>
  <text x="360" y="404" fill="#5A6A7A" font-size="12">22/04 17:54</text>
  <text x="510" y="404" fill="#1A1A2E" font-size="12">4 itens</text>
  <text x="620" y="404" fill="#1A1A2E" font-size="12" font-weight="500">R$ 78,20</text>
  <text x="730" y="404" fill="#5A6A7A" font-size="12">PIX</text>
  <text x="870" y="404" fill="#5A6A7A" font-size="12">Admin</text>
  <rect x="986" y="392" width="74" height="18" rx="9" fill="#EBF7F1"/>
  <text x="996" y="405" fill="#1B7A45" font-size="11">Confirmada</text>
  <rect x="1116" y="392" width="48" height="18" rx="4" fill="#EAF4FB"/>
  <text x="1126" y="405" fill="#2E88C4" font-size="11">Ver ▸</text>

  <!-- Placeholder rows -->
  <line x1="240" y1="418" x2="1200" y2="418" stroke="#E2E8EF" stroke-width="1"/>
  <rect x="260" y="428" width="80" height="12" rx="3" fill="#F4F7FA"/>
  <rect x="360" y="428" width="110" height="12" rx="3" fill="#F4F7FA"/>
  <rect x="510" y="428" width="50" height="12" rx="3" fill="#F4F7FA"/>
  <rect x="620" y="428" width="80" height="12" rx="3" fill="#F4F7FA"/>

  <line x1="240" y1="450" x2="1200" y2="450" stroke="#E2E8EF" stroke-width="1"/>
  <rect x="260" y="460" width="80" height="12" rx="3" fill="#F4F7FA"/>
  <rect x="360" y="460" width="110" height="12" rx="3" fill="#F4F7FA"/>
  <rect x="510" y="460" width="50" height="12" rx="3" fill="#F4F7FA"/>
  <rect x="620" y="460" width="80" height="12" rx="3" fill="#F4F7FA"/>

  <!-- Detalhe venda (right panel hint) -->
  <rect x="240" y="480" width="960" height="170" rx="0" fill="#EAF4FB" opacity="0.5"/>
  <rect x="240" y="480" width="960" height="1" fill="#2E88C4" opacity="0.3"/>
  <text x="260" y="504" fill="#1B5E88" font-size="12" font-weight="600">Detalhes da Venda #V-0034</text>
  <!-- Items detail -->
  <text x="260" y="528" fill="#5A6A7A" font-size="11">Produto</text>
  <text x="580" y="528" fill="#5A6A7A" font-size="11">Qtd</text>
  <text x="700" y="528" fill="#5A6A7A" font-size="11">Preço unit.</text>
  <text x="860" y="528" fill="#5A6A7A" font-size="11">Subtotal</text>
  <line x1="256" y1="534" x2="1184" y2="534" stroke="#E2E8EF" stroke-width="1"/>
  <text x="260" y="550" fill="#1A1A2E" font-size="12">Arroz 5kg</text>
  <text x="580" y="550" fill="#1A1A2E" font-size="12">2</text>
  <text x="700" y="550" fill="#1A1A2E" font-size="12">R$ 17,00</text>
  <text x="860" y="550" fill="#1A1A2E" font-size="12">R$ 34,00</text>
  <line x1="256" y1="558" x2="1184" y2="558" stroke="#E2E8EF" stroke-width="1"/>
  <text x="260" y="574" fill="#1A1A2E" font-size="12">Feijão carioca</text>
  <text x="580" y="574" fill="#1A1A2E" font-size="12">1</text>
  <text x="700" y="574" fill="#1A1A2E" font-size="12">R$ 8,50</text>
  <text x="860" y="574" fill="#1A1A2E" font-size="12">R$ 8,50</text>
  <line x1="256" y1="582" x2="1184" y2="582" stroke="#E2E8EF" stroke-width="1"/>
  <text x="260" y="598" fill="#1A1A2E" font-size="12">Detergente 500ml</text>
  <text x="580" y="598" fill="#1A1A2E" font-size="12">1</text>
  <text x="700" y="598" fill="#1A1A2E" font-size="12">R$ 16,90</text>
  <text x="860" y="598" fill="#1A1A2E" font-size="12">R$ 16,90</text>
  <text x="860" y="628" fill="#1A1A2E" font-size="13" font-weight="600">Total: R$ 59,40</text>
  <rect x="1100" y="614" width="88" height="26" rx="6" fill="#FDECEA" stroke="#E74C3C" stroke-width="1"/>
  <text x="1112" y="632" fill="#9B2320" font-size="12">Cancelar</text>

  <!-- Pagination -->
  <text x="260" y="720" fill="#5A6A7A" font-size="12">Mostrando 1–10 de 34 vendas hoje</text>
  <rect x="1060" y="706" width="30" height="26" rx="4" fill="#F4F7FA" stroke="#E2E8EF" stroke-width="1"/>
  <text x="1070" y="723" fill="#5A6A7A" font-size="12">‹</text>
  <rect x="1096" y="706" width="30" height="26" rx="4" fill="#2E88C4"/>
  <text x="1106" y="723" fill="white" font-size="12">1</text>
  <rect x="1132" y="706" width="30" height="26" rx="4" fill="#F4F7FA" stroke="#E2E8EF" stroke-width="1"/>
  <text x="1141" y="723" fill="#5A6A7A" font-size="12">2</text>
  <rect x="1168" y="706" width="30" height="26" rx="4" fill="#F4F7FA" stroke="#E2E8EF" stroke-width="1"/>
  <text x="1178" y="723" fill="#5A6A7A" font-size="12">›</text>

  <text x="640" y="780" fill="#5A6A7A" font-size="11" text-anchor="middle">StockEasy · Wireframe · Vendas · SENAC Franca</text>
</svg>
