<svg width="1280" height="800" viewBox="0 0 1280 800" xmlns="http://www.w3.org/2000/svg" font-family="'Segoe UI', sans-serif">
  <rect width="1280" height="800" fill="#F4F7FA"/>

  <!-- Sidebar -->
  <rect width="220" height="800" fill="#1B5E88"/>
  <text x="20" y="34" fill="#FFFFFF" font-size="18" font-weight="600">StockEasy</text>
  <text x="20" y="52" fill="rgba(255,255,255,0.5)" font-size="11">Gestão de comércio</text>
  <line x1="0" y1="64" x2="220" y2="64" stroke="rgba(255,255,255,0.12)" stroke-width="1"/>
  <text x="40" y="100" fill="rgba(255,255,255,0.65)" font-size="13">Dashboard</text>
  <text x="40" y="137" fill="rgba(255,255,255,0.65)" font-size="13">Produtos</text>
  <text x="40" y="174" fill="rgba(255,255,255,0.65)" font-size="13">Estoque</text>
  <text x="40" y="211" fill="rgba(255,255,255,0.65)" font-size="13">Vendas</text>
  <text x="40" y="248" fill="rgba(255,255,255,0.65)" font-size="13">Fornecedores</text>
  <!-- Relatórios ACTIVE -->
  <rect x="0" y="261" width="220" height="38" fill="rgba(255,255,255,0.15)"/>
  <rect x="0" y="261" width="3" height="38" fill="#5AB0E0"/>
  <text x="40" y="285" fill="#FFFFFF" font-size="13">Relatórios</text>
  <line x1="0" y1="760" x2="220" y2="760" stroke="rgba(255,255,255,0.12)" stroke-width="1"/>
  <text x="20" y="780" fill="rgba(255,255,255,0.4)" font-size="11">v1.0 — SENAC Franca</text>

  <!-- Topbar -->
  <rect x="220" y="0" width="1060" height="56" fill="#FFFFFF"/>
  <line x1="220" y1="56" x2="1280" y2="56" stroke="#E2E8EF" stroke-width="1"/>
  <text x="240" y="34" fill="#1A1A2E" font-size="15" font-weight="500">Relatórios</text>
  <text x="1160" y="34" fill="#5A6A7A" font-size="13">Olá, Admin</text>
  <circle cx="1252" cy="28" r="16" fill="#2E88C4"/>
  <text x="1248" y="32" fill="white" font-size="11" font-weight="500">AD</text>

  <!-- Report type tabs -->
  <rect x="240" y="68" width="960" height="40" rx="8" fill="#FFFFFF" stroke="#E2E8EF" stroke-width="1"/>
  <rect x="248" y="74" width="140" height="28" rx="6" fill="#2E88C4"/>
  <text x="290" y="93" fill="white" font-size="12" font-weight="500">Vendas</text>
  <rect x="396" y="74" width="140" height="28" rx="6" fill="none"/>
  <text x="438" y="93" fill="#5A6A7A" font-size="12">Estoque</text>
  <rect x="544" y="74" width="140" height="28" rx="6" fill="none"/>
  <text x="576" y="93" fill="#5A6A7A" font-size="12">Produtos</text>
  <rect x="692" y="74" width="140" height="28" rx="6" fill="none"/>
  <text x="724" y="93" fill="#5A6A7A" font-size="12">Fornecedores</text>

  <!-- Filters bar -->
  <rect x="240" y="120" width="960" height="44" rx="8" fill="#FFFFFF" stroke="#E2E8EF" stroke-width="1"/>
  <text x="260" y="147" fill="#5A6A7A" font-size="12">Período:</text>
  <rect x="316" y="130" width="150" height="24" rx="5" fill="#F4F7FA" stroke="#E2E8EF" stroke-width="1"/>
  <text x="326" y="146" fill="#1A1A2E" font-size="12">01/04/2025  📅</text>
  <text x="474" y="147" fill="#5A6A7A" font-size="12">até</text>
  <rect x="494" y="130" width="150" height="24" rx="5" fill="#F4F7FA" stroke="#E2E8EF" stroke-width="1"/>
  <text x="504" y="146" fill="#1A1A2E" font-size="12">23/04/2025  📅</text>
  <rect x="660" y="130" width="110" height="24" rx="5" fill="#F4F7FA" stroke="#E2E8EF" stroke-width="1"/>
  <text x="672" y="146" fill="#5A6A7A" font-size="12">Categoria  ▾</text>
  <rect x="1060" y="130" width="124" height="24" rx="5" fill="#2E88C4"/>
  <text x="1070" y="146" fill="white" font-size="11" font-weight="500">⬇ Exportar PDF</text>

  <!-- KPI summary -->
  <rect x="240" y="178" width="228" height="72" rx="8" fill="#FFFFFF" stroke="#E2E8EF" stroke-width="1"/>
  <text x="260" y="202" fill="#5A6A7A" font-size="12">Total vendido</text>
  <text x="260" y="228" fill="#1A1A2E" font-size="20" font-weight="500">R$ 24.870</text>
  <text x="260" y="244" fill="#1B7A45" font-size="11">+8% vs período ant.</text>

  <rect x="484" y="178" width="228" height="72" rx="8" fill="#FFFFFF" stroke="#E2E8EF" stroke-width="1"/>
  <text x="504" y="202" fill="#5A6A7A" font-size="12">N° de vendas</text>
  <text x="504" y="228" fill="#1A1A2E" font-size="20" font-weight="500">342</text>
  <text x="504" y="244" fill="#5A6A7A" font-size="11">Ticket médio: R$ 72,72</text>

  <rect x="728" y="178" width="228" height="72" rx="8" fill="#FFFFFF" stroke="#E2E8EF" stroke-width="1"/>
  <text x="748" y="202" fill="#5A6A7A" font-size="12">Cancelamentos</text>
  <text x="748" y="228" fill="#E74C3C" font-size="20" font-weight="500">12</text>
  <text x="748" y="244" fill="#5A6A7A" font-size="11">R$ 860,00 devolvidos</text>

  <rect x="972" y="178" width="228" height="72" rx="8" fill="#FFFFFF" stroke="#E2E8EF" stroke-width="1"/>
  <text x="992" y="202" fill="#5A6A7A" font-size="12">Produto top</text>
  <text x="992" y="224" fill="#1A1A2E" font-size="14" font-weight="500">Arroz 5kg</text>
  <text x="992" y="244" fill="#5A6A7A" font-size="11">148 unidades vendidas</text>

  <!-- Charts section -->
  <!-- Line chart -->
  <rect x="240" y="264" width="580" height="210" rx="8" fill="#FFFFFF" stroke="#E2E8EF" stroke-width="1"/>
  <text x="260" y="288" fill="#1A1A2E" font-size="13" font-weight="500">Evolução de Vendas no Período</text>

  <!-- Line chart content -->
  <line x1="270" y1="440" x2="800" y2="440" stroke="#E2E8EF" stroke-width="1"/>
  <line x1="270" y1="410" x2="800" y2="410" stroke="#E2E8EF" stroke-width="0.5" stroke-dasharray="4,3"/>
  <line x1="270" y1="380" x2="800" y2="380" stroke="#E2E8EF" stroke-width="0.5" stroke-dasharray="4,3"/>
  <line x1="270" y1="350" x2="800" y2="350" stroke="#E2E8EF" stroke-width="0.5" stroke-dasharray="4,3"/>
  <line x1="270" y1="320" x2="800" y2="320" stroke="#E2E8EF" stroke-width="0.5" stroke-dasharray="4,3"/>

  <!-- Y axis labels -->
  <text x="256" y="414" fill="#5A6A7A" font-size="9" text-anchor="end">500</text>
  <text x="256" y="384" fill="#5A6A7A" font-size="9" text-anchor="end">1000</text>
  <text x="256" y="354" fill="#5A6A7A" font-size="9" text-anchor="end">1500</text>
  <text x="256" y="324" fill="#5A6A7A" font-size="9" text-anchor="end">2000</text>

  <!-- Line -->
  <polyline points="280,420 320,400 360,390 400,370 440,360 480,340 520,355 560,330 600,310 640,325 680,308 720,295 760,305 800,288"
    fill="none" stroke="#2E88C4" stroke-width="2" stroke-linejoin="round"/>
  <!-- Area under line -->
  <polygon points="280,420 320,400 360,390 400,370 440,360 480,340 520,355 560,330 600,310 640,325 680,308 720,295 760,305 800,288 800,440 280,440"
    fill="#EAF4FB" opacity="0.5"/>
  <!-- Dots -->
  <circle cx="280" cy="420" r="3" fill="#2E88C4"/>
  <circle cx="400" cy="370" r="3" fill="#2E88C4"/>
  <circle cx="520" cy="355" r="3" fill="#2E88C4"/>
  <circle cx="640" cy="325" r="3" fill="#2E88C4"/>
  <circle cx="760" cy="305" r="3" fill="#2E88C4"/>
  <circle cx="800" cy="288" r="4" fill="#1B5E88" stroke="white" stroke-width="1.5"/>

  <!-- X axis labels -->
  <text x="280" y="454" fill="#5A6A7A" font-size="9" text-anchor="middle">01/04</text>
  <text x="360" y="454" fill="#5A6A7A" font-size="9" text-anchor="middle">05/04</text>
  <text x="440" y="454" fill="#5A6A7A" font-size="9" text-anchor="middle">09/04</text>
  <text x="520" y="454" fill="#5A6A7A" font-size="9" text-anchor="middle">13/04</text>
  <text x="600" y="454" fill="#5A6A7A" font-size="9" text-anchor="middle">17/04</text>
  <text x="680" y="454" fill="#5A6A7A" font-size="9" text-anchor="middle">21/04</text>
  <text x="760" y="454" fill="#5A6A7A" font-size="9" text-anchor="middle">23/04</text>

  <!-- Donut/Pie chart -->
  <rect x="840" y="264" width="360" height="210" rx="8" fill="#FFFFFF" stroke="#E2E8EF" stroke-width="1"/>
  <text x="860" y="288" fill="#1A1A2E" font-size="13" font-weight="500">Vendas por Categoria</text>

  <!-- Donut approximation -->
  <circle cx="960" cy="375" r="70" fill="none" stroke="#E2E8EF" stroke-width="1"/>
  <!-- Segments approximated as arcs -->
  <path d="M960,305 A70,70 0 0,1 1016,409" fill="none" stroke="#2E88C4" stroke-width="28"/>
  <path d="M1016,409 A70,70 0 0,1 913,437" fill="none" stroke="#5AB0E0" stroke-width="28"/>
  <path d="M913,437 A70,70 0 0,1 904,313" fill="none" stroke="#1B5E88" stroke-width="28"/>
  <path d="M904,313 A70,70 0 0,1 960,305" fill="none" stroke="#EAF4FB" stroke-width="28" stroke-opacity="0.8"/>
  <!-- Center hole -->
  <circle cx="960" cy="375" r="44" fill="#FFFFFF"/>
  <text x="960" y="370" fill="#1A1A2E" font-size="11" text-anchor="middle" font-weight="600">342</text>
  <text x="960" y="384" fill="#5A6A7A" font-size="9" text-anchor="middle">vendas</text>

  <!-- Legend -->
  <rect x="1046" y="330" width="10" height="10" rx="2" fill="#2E88C4"/>
  <text x="1062" y="340" fill="#5A6A7A" font-size="11">Alimentos 58%</text>
  <rect x="1046" y="350" width="10" height="10" rx="2" fill="#5AB0E0"/>
  <text x="1062" y="360" fill="#5A6A7A" font-size="11">Limpeza 22%</text>
  <rect x="1046" y="370" width="10" height="10" rx="2" fill="#1B5E88"/>
  <text x="1062" y="380" fill="#5A6A7A" font-size="11">Bebidas 14%</text>
  <rect x="1046" y="390" width="10" height="10" rx="2" fill="#EAF4FB" stroke="#E2E8EF" stroke-width="1"/>
  <text x="1062" y="400" fill="#5A6A7A" font-size="11">Outros 6%</text>

  <!-- Top produtos table -->
  <rect x="240" y="488" width="580" height="212" rx="8" fill="#FFFFFF" stroke="#E2E8EF" stroke-width="1"/>
  <text x="260" y="512" fill="#1A1A2E" font-size="13" font-weight="500">Top 5 Produtos Mais Vendidos</text>
  <rect x="240" y="520" width="580" height="26" rx="0" fill="#EAF4FB"/>
  <rect x="240" y="520" width="580" height="26" fill="#EAF4FB"/>
  <text x="260" y="537" fill="#1B5E88" font-size="11" font-weight="600">Produto</text>
  <text x="480" y="537" fill="#1B5E88" font-size="11" font-weight="600">Qtd. Vendida</text>
  <text x="600" y="537" fill="#1B5E88" font-size="11" font-weight="600">Receita</text>
  <text x="720" y="537" fill="#1B5E88" font-size="11" font-weight="600">Part. %</text>

  <line x1="240" y1="546" x2="820" y2="546" stroke="#E2E8EF" stroke-width="1"/>
  <text x="260" y="562" fill="#1A1A2E" font-size="12">1. Arroz 5kg</text>
  <text x="480" y="562" fill="#1A1A2E" font-size="12">148</text>
  <text x="600" y="562" fill="#1A1A2E" font-size="12">R$ 2.516</text>
  <rect x="720" y="553" width="58" height="12" rx="2" fill="#EAF4FB"/>
  <rect x="720" y="553" width="58" height="12" rx="2" fill="#2E88C4" opacity="0.8"/>
  <text x="782" y="563" fill="#1B5E88" font-size="10" text-anchor="end">24%</text>

  <line x1="240" y1="572" x2="820" y2="572" stroke="#E2E8EF" stroke-width="1"/>
  <text x="260" y="588" fill="#1A1A2E" font-size="12">2. Açúcar refinado</text>
  <text x="480" y="588" fill="#1A1A2E" font-size="12">120</text>
  <text x="600" y="588" fill="#1A1A2E" font-size="12">R$ 576</text>
  <rect x="720" y="579" width="48" height="12" rx="2" fill="#2E88C4" opacity="0.7"/>
  <text x="782" y="589" fill="#1B5E88" font-size="10" text-anchor="end">19%</text>

  <line x1="240" y1="598" x2="820" y2="598" stroke="#E2E8EF" stroke-width="1"/>
  <text x="260" y="614" fill="#1A1A2E" font-size="12">3. Detergente 500ml</text>
  <text x="480" y="614" fill="#1A1A2E" font-size="12">98</text>
  <text x="600" y="614" fill="#1A1A2E" font-size="12">R$ 284</text>
  <rect x="720" y="605" width="38" height="12" rx="2" fill="#2E88C4" opacity="0.6"/>
  <text x="782" y="615" fill="#1B5E88" font-size="10" text-anchor="end">15%</text>

  <line x1="240" y1="624" x2="820" y2="624" stroke="#E2E8EF" stroke-width="1"/>
  <text x="260" y="640" fill="#1A1A2E" font-size="12">4. Feijão carioca</text>
  <text x="480" y="640" fill="#1A1A2E" font-size="12">86</text>
  <text x="600" y="640" fill="#1A1A2E" font-size="12">R$ 731</text>
  <rect x="720" y="631" width="30" height="12" rx="2" fill="#5AB0E0" opacity="0.8"/>
  <text x="782" y="641" fill="#1B5E88" font-size="10" text-anchor="end">12%</text>

  <line x1="240" y1="650" x2="820" y2="650" stroke="#E2E8EF" stroke-width="1"/>
  <text x="260" y="666" fill="#1A1A2E" font-size="12">5. Sabão em pó</text>
  <text x="480" y="666" fill="#1A1A2E" font-size="12">74</text>
  <text x="600" y="666" fill="#1A1A2E" font-size="12">R$ 1.399</text>
  <rect x="720" y="657" width="24" height="12" rx="2" fill="#5AB0E0" opacity="0.6"/>
  <text x="782" y="667" fill="#1B5E88" font-size="10" text-anchor="end">10%</text>

  <!-- Export buttons -->
  <rect x="840" y="488" width="360" height="212" rx="8" fill="#FFFFFF" stroke="#E2E8EF" stroke-width="1"/>
  <text x="860" y="512" fill="#1A1A2E" font-size="13" font-weight="500">Exportar Relatório</text>
  <line x1="840" y1="522" x2="1200" y2="522" stroke="#E2E8EF" stroke-width="1"/>

  <text x="860" y="550" fill="#5A6A7A" font-size="12">Escolha o formato de exportação:</text>
  <rect x="860" y="562" width="300" height="44" rx="8" fill="#F4F7FA" stroke="#E2E8EF" stroke-width="1"/>
  <text x="876" y="589" fill="#1A1A2E" font-size="13">📄  Exportar como PDF</text>

  <rect x="860" y="614" width="300" height="44" rx="8" fill="#F4F7FA" stroke="#E2E8EF" stroke-width="1"/>
  <text x="876" y="641" fill="#1A1A2E" font-size="13">📊  Exportar como Excel</text>

  <rect x="860" y="654" width="300" height="30" rx="6" fill="#2E88C4"/>
  <text x="960" y="674" fill="white" font-size="12" font-weight="500" text-anchor="middle">Gerar Relatório</text>

  <text x="640" y="780" fill="#5A6A7A" font-size="11" text-anchor="middle">StockEasy · Wireframe · Relatórios · SENAC Franca</text>
</svg>
